<?xml version="1.0" encoding="UTF-8"?>
<svg width="139px" height="22px" viewBox="0 0 139 22" version="1.1" xmlns="http://www.w3.org/2000/svg" xmlns:xlink="http://www.w3.org/1999/xlink">
    <!-- Generator: Sketch 58 (84663) - https://sketch.com -->
    <title>ShoeBox</title>
    <desc>Created with Sketch.</desc>
    <g id="Page-1" stroke="none" stroke-width="1" fill="none" fill-rule="evenodd">
        <g id="Artboard" transform="translate(-2886.000000, -3338.000000)" fill="#000000" fill-rule="nonzero">
            <path d="M2897.52234,3345.36897 C2896.9892,3344.93579 2896.45607,3344.61508 2895.92292,3344.40682 C2895.38978,3344.19856 2894.87331,3344.09443 2894.37348,3344.09443 C2893.74038,3344.09443 2893.2239,3344.24437 2892.82405,3344.54427 C2892.42419,3344.84416 2892.22426,3345.23568 2892.22426,3345.71884 C2892.22426,3346.05206 2892.32423,3346.32695 2892.52415,3346.54354 C2892.72408,3346.76013 2892.98649,3346.94756 2893.31137,3347.10584 C2893.63625,3347.26412 2894.00278,3347.40157 2894.41097,3347.51819 C2894.81916,3347.63482 2895.22317,3347.75977 2895.62303,3347.89305 C2897.22246,3348.4262 2898.39286,3349.13843 2899.13426,3350.02978 C2899.87566,3350.92113 2900.24636,3352.0832 2900.24636,3353.51602 C2900.24636,3354.48234 2900.08392,3355.35701 2899.75903,3356.14007 C2899.43415,3356.92312 2898.95933,3357.5937 2898.33455,3358.15184 C2897.70977,3358.70997 2896.94339,3359.14314 2896.03538,3359.45137 C2895.12737,3359.75959 2894.09859,3359.9137 2892.949,3359.9137 C2890.56652,3359.9137 2888.35901,3359.20563 2886.3264,3357.78947 L2888.42564,3353.8409 C2889.15871,3354.49067 2889.88344,3354.97382 2890.59985,3355.29037 C2891.31626,3355.60693 2892.02433,3355.7652 2892.72408,3355.7652 C2893.5238,3355.7652 2894.11941,3355.58194 2894.51093,3355.2154 C2894.90246,3354.84887 2895.09822,3354.43235 2895.09822,3353.96585 C2895.09822,3353.68262 2895.04824,3353.43688 2894.94828,3353.22862 C2894.84831,3353.02036 2894.68171,3352.82877 2894.44846,3352.65383 C2894.21521,3352.47889 2893.91115,3352.31645 2893.53629,3352.16651 C2893.16142,3352.01656 2892.70742,3351.84996 2892.17428,3351.66669 C2891.54117,3351.46676 2890.92057,3351.24601 2890.31246,3351.00443 C2889.70434,3350.76285 2889.16287,3350.44213 2888.68804,3350.04228 C2888.21321,3349.64242 2887.83002,3349.13844 2887.53846,3348.53032 C2887.2469,3347.92221 2887.10112,3347.15166 2887.10112,3346.21866 C2887.10112,3345.28566 2887.25523,3344.44014 2887.56345,3343.68208 C2887.87167,3342.92402 2888.30485,3342.27426 2888.86298,3341.73279 C2889.42111,3341.19131 2890.10419,3340.77064 2890.91224,3340.47074 C2891.72028,3340.17085 2892.62411,3340.02091 2893.62376,3340.02091 C2894.55676,3340.02091 2895.53139,3340.15003 2896.5477,3340.40827 C2897.564,3340.66651 2898.53864,3341.04553 2899.47164,3341.54535 L2897.52234,3345.36897 Z M2906.26917,3338.6464 L2910.79254,3338.6464 L2910.79254,3348.19295 C2911.40898,3347.44321 2912.03375,3346.93923 2912.66686,3346.68099 C2913.29996,3346.42275 2914.04135,3346.29363 2914.89105,3346.29363 C2916.50714,3346.29363 2917.72752,3346.7393 2918.55222,3347.63065 C2919.37693,3348.522 2919.78928,3349.72572 2919.78928,3351.24184 L2919.78928,3359.38889 L2915.26591,3359.38889 L2915.26591,3352.91623 C2915.26591,3352.26647 2915.21593,3351.74166 2915.11597,3351.3418 C2915.016,3350.94195 2914.8494,3350.63373 2914.61615,3350.41714 C2914.21629,3350.06726 2913.73314,3349.89233 2913.16667,3349.89233 C2912.40028,3349.89233 2911.813,3350.12141 2911.40481,3350.57958 C2910.99663,3351.03775 2910.79254,3351.69167 2910.79254,3352.54137 L2910.79254,3359.38889 L2906.26917,3359.38889 L2906.26917,3338.6464 Z M2930.51039,3352.91623 C2930.51039,3353.34941 2930.58953,3353.7451 2930.74781,3354.1033 C2930.90608,3354.46151 2931.11434,3354.77389 2931.37258,3355.04046 C2931.63082,3355.30704 2931.93904,3355.51529 2932.29724,3355.66524 C2932.65545,3355.81518 2933.03447,3355.89016 2933.43433,3355.89016 C2933.83419,3355.89016 2934.21321,3355.81518 2934.57142,3355.66524 C2934.92963,3355.51529 2935.23784,3355.30704 2935.49608,3355.04046 C2935.75433,3354.77389 2935.96258,3354.46151 2936.12086,3354.1033 C2936.27914,3353.7451 2936.35827,3353.35774 2936.35827,3352.94123 C2936.35827,3352.54137 2936.27914,3352.16234 2936.12086,3351.80414 C2935.96258,3351.44593 2935.75433,3351.13355 2935.49608,3350.86698 C2935.23784,3350.60041 2934.92963,3350.39215 2934.57142,3350.2422 C2934.21321,3350.09226 2933.83419,3350.01728 2933.43433,3350.01728 C2933.03447,3350.01728 2932.65545,3350.09226 2932.29724,3350.2422 C2931.93904,3350.39215 2931.63082,3350.60041 2931.37258,3350.86698 C2931.11434,3351.13355 2930.90608,3351.44177 2930.74781,3351.79164 C2930.58953,3352.14152 2930.51039,3352.51638 2930.51039,3352.91623 Z M2925.73712,3352.86625 C2925.73712,3351.91659 2925.92872,3351.02942 2926.31191,3350.20472 C2926.69511,3349.38001 2927.22824,3348.66361 2927.91133,3348.0555 C2928.59442,3347.44738 2929.40662,3346.96839 2930.34795,3346.61852 C2931.28928,3346.26864 2932.31806,3346.09371 2933.43433,3346.09371 C2934.53394,3346.09371 2935.55439,3346.26448 2936.49572,3346.60602 C2937.43705,3346.94757 2938.25342,3347.42239 2938.94484,3348.0305 C2939.63625,3348.63862 2940.17355,3349.36335 2940.55675,3350.20472 C2940.93995,3351.04608 2941.13154,3351.9749 2941.13154,3352.99121 C2941.13154,3354.00751 2940.93578,3354.93633 2940.54426,3355.7777 C2940.15273,3356.61906 2939.61543,3357.34379 2938.93234,3357.95191 C2938.24925,3358.56003 2937.42872,3359.03068 2936.47073,3359.3639 C2935.51274,3359.69711 2934.47563,3359.86372 2933.35936,3359.86372 C2932.25975,3359.86372 2931.24346,3359.69711 2930.31046,3359.3639 C2929.37746,3359.03068 2928.5736,3358.55586 2927.89884,3357.93941 C2927.22408,3357.32297 2926.69511,3356.58574 2926.31191,3355.72772 C2925.92872,3354.86969 2925.73712,3353.91588 2925.73712,3352.86625 Z M2956.47598,3351.11689 C2956.32604,3350.48378 2956.01782,3349.97564 2955.55132,3349.59244 C2955.08482,3349.20924 2954.51836,3349.01765 2953.85193,3349.01765 C2953.15218,3349.01765 2952.58156,3349.20091 2952.14005,3349.56745 C2951.69855,3349.93398 2951.41948,3350.45046 2951.30286,3351.11689 L2956.47598,3351.11689 Z M2951.1779,3353.74094 C2951.1779,3355.69024 2952.09423,3356.66488 2953.92691,3356.66488 C2954.90989,3356.66488 2955.65128,3356.26503 2956.1511,3355.46531 L2960.52452,3355.46531 C2959.6415,3358.3976 2957.43399,3359.86372 2953.90192,3359.86372 C2952.81897,3359.86372 2951.82767,3359.70128 2950.92799,3359.37639 C2950.02831,3359.05151 2949.25777,3358.58918 2948.61633,3357.9894 C2947.97489,3357.38961 2947.47924,3356.67321 2947.12937,3355.84018 C2946.77949,3355.00714 2946.60456,3354.07415 2946.60456,3353.04119 C2946.60456,3351.9749 2946.77116,3351.01276 2947.10438,3350.15473 C2947.43759,3349.29671 2947.91242,3348.56781 2948.52886,3347.96803 C2949.14531,3347.36824 2949.89086,3346.90591 2950.76555,3346.58103 C2951.64024,3346.25615 2952.62737,3346.09371 2953.72698,3346.09371 C2954.80993,3346.09371 2955.78456,3346.25615 2956.65092,3346.58103 C2957.51728,3346.90591 2958.25034,3347.37657 2958.85012,3347.99302 C2959.44991,3348.60946 2959.90807,3349.36335 2960.22463,3350.2547 C2960.54118,3351.14605 2960.69945,3352.14984 2960.69945,3353.26611 L2960.69945,3353.74094 L2951.1779,3353.74094 Z M2971.97037,3355.59027 L2973.04498,3355.59027 C2974.27787,3355.59027 2975.16088,3355.43199 2975.69402,3355.11544 C2976.22716,3354.79888 2976.49373,3354.29074 2976.49373,3353.59099 C2976.49373,3352.89124 2976.22716,3352.3831 2975.69402,3352.06654 C2975.16088,3351.74999 2974.27787,3351.59171 2973.04498,3351.59171 L2971.97037,3351.59171 L2971.97037,3355.59027 Z M2971.97037,3347.94304 L2972.87004,3347.94304 C2974.40283,3347.94304 2975.16921,3347.33493 2975.16921,3346.1187 C2975.16921,3344.90247 2974.40283,3344.29436 2972.87004,3344.29436 L2971.97037,3344.29436 L2971.97037,3347.94304 Z M2967.07214,3340.54572 L2974.3695,3340.54572 C2976.10221,3340.54572 2977.41839,3340.96223 2978.31807,3341.79526 C2979.21775,3342.6283 2979.66758,3343.82785 2979.66758,3345.39396 C2979.66758,3346.34362 2979.49681,3347.13083 2979.15527,3347.7556 C2978.81372,3348.38038 2978.29308,3348.90935 2977.59333,3349.34253 C2978.29308,3349.47581 2978.88869,3349.67991 2979.38018,3349.95481 C2979.87168,3350.22971 2980.27153,3350.56708 2980.57975,3350.96694 C2980.88797,3351.3668 2981.10872,3351.81663 2981.24201,3352.31645 C2981.3753,3352.81627 2981.44194,3353.34941 2981.44194,3353.91587 C2981.44194,3354.79889 2981.28783,3355.58193 2980.97961,3356.26502 C2980.67138,3356.94811 2980.23821,3357.5229 2979.68008,3357.9894 C2979.12194,3358.4559 2978.44303,3358.80577 2977.64331,3359.03902 C2976.8436,3359.27227 2975.94393,3359.38889 2974.94429,3359.38889 L2967.07214,3359.38889 L2967.07214,3340.54572 Z M2991.58826,3352.91623 C2991.58826,3353.34941 2991.6674,3353.7451 2991.82568,3354.1033 C2991.98395,3354.46151 2992.19221,3354.77389 2992.45045,3355.04046 C2992.70869,3355.30704 2993.01691,3355.51529 2993.37511,3355.66524 C2993.73332,3355.81518 2994.11234,3355.89016 2994.5122,3355.89016 C2994.91206,3355.89016 2995.29108,3355.81518 2995.64929,3355.66524 C2996.0075,3355.51529 2996.31571,3355.30704 2996.57395,3355.04046 C2996.8322,3354.77389 2997.04045,3354.46151 2997.19873,3354.1033 C2997.35701,3353.7451 2997.43614,3353.35774 2997.43614,3352.94123 C2997.43614,3352.54137 2997.35701,3352.16234 2997.19873,3351.80414 C2997.04045,3351.44593 2996.8322,3351.13355 2996.57395,3350.86698 C2996.31571,3350.60041 2996.0075,3350.39215 2995.64929,3350.2422 C2995.29108,3350.09226 2994.91206,3350.01728 2994.5122,3350.01728 C2994.11234,3350.01728 2993.73332,3350.09226 2993.37511,3350.2422 C2993.01691,3350.39215 2992.70869,3350.60041 2992.45045,3350.86698 C2992.19221,3351.13355 2991.98395,3351.44177 2991.82568,3351.79164 C2991.6674,3352.14152 2991.58826,3352.51638 2991.58826,3352.91623 Z M2986.81499,3352.86625 C2986.81499,3351.91659 2987.00659,3351.02942 2987.38978,3350.20472 C2987.77298,3349.38001 2988.30611,3348.66361 2988.9892,3348.0555 C2989.67229,3347.44738 2990.48449,3346.96839 2991.42582,3346.61852 C2992.36715,3346.26864 2993.39593,3346.09371 2994.5122,3346.09371 C2995.61181,3346.09371 2996.63226,3346.26448 2997.57359,3346.60602 C2998.51492,3346.94757 2999.33129,3347.42239 3000.02271,3348.0305 C3000.71413,3348.63862 3001.25142,3349.36335 3001.63462,3350.20472 C3002.01782,3351.04608 3002.20941,3351.9749 3002.20941,3352.99121 C3002.20941,3354.00751 3002.01365,3354.93633 3001.62213,3355.7777 C3001.2306,3356.61906 3000.6933,3357.34379 3000.01021,3357.95191 C2999.32712,3358.56003 2998.50659,3359.03068 2997.5486,3359.3639 C2996.59061,3359.69711 2995.5535,3359.86372 2994.43723,3359.86372 C2993.33762,3359.86372 2992.32133,3359.69711 2991.38833,3359.3639 C2990.45533,3359.03068 2989.65147,3358.55586 2988.97671,3357.93941 C2988.30195,3357.32297 2987.77298,3356.58574 2987.38978,3355.72772 C2987.00659,3354.86969 2986.81499,3353.91588 2986.81499,3352.86625 Z M3012.1808,3352.44141 L3006.98268,3346.56853 L3012.88055,3346.56853 L3015.07975,3349.21757 L3017.32894,3346.56853 L3023.2268,3346.56853 L3017.90373,3352.44141 L3024.3264,3359.38889 L3018.32857,3359.38889 L3015.05476,3355.59027 L3011.75595,3359.38889 L3005.78312,3359.38889 L3012.1808,3352.44141 Z" id="ShoeBox"></path>
        </g>
    </g>
</svg>